<svg xmlns="http://www.w3.org/2000/svg" width="320" height="121.63805016653917" viewBox="0 0 320 121.63805016653917" class="css-1j8o68f"><defs id="SvgjsDefs2736"></defs><g id="SvgjsG2737" featurekey="S6ay6y-0" transform="matrix(1.3515338907393242,0,0,1.3515338907393242,-17.57669840373569,-6.757669453696621)" fill="#2c3044"><path xmlns="http://www.w3.org/2000/svg" fill-rule="evenodd" clip-rule="evenodd" d="M14.047,30.525H75.65c0.575,0,1.04,0.465,1.04,1.04c0,0.04-0.004,0.08-0.007,0.12  l-2.026,62.306c-0.016,0.561-0.478,1.005-1.036,1.005V95H17.133c-0.575,0-1.04-0.466-1.04-1.04v-0.027L13.01,31.614  c-0.026-0.572,0.416-1.058,0.989-1.085l0.048-0.001V30.525L14.047,30.525z M74.578,32.606H15.137l2.984,60.313h54.497L74.578,32.606  z"></path><path xmlns="http://www.w3.org/2000/svg" fill-rule="evenodd" clip-rule="evenodd" d="M84.848,26.763l-4.5,2.092l-3.677,3.2l-1.918,58.992l7.83-9.118L84.848,26.763  L84.848,26.763z M79.335,27.034l6.185-2.871v0.001c0.145-0.067,0.306-0.102,0.476-0.096c0.572,0.022,1.017,0.505,0.996,1.077  l-2.35,57.197c-0.001,0.236-0.084,0.472-0.249,0.665l-9.983,11.627l-0.001-0.001c-0.197,0.231-0.494,0.373-0.82,0.362  c-0.572-0.018-1.022-0.496-1.004-1.069l2.027-62.32c-0.013-0.303,0.109-0.61,0.355-0.825l4.122-3.588v0.001  C79.162,27.13,79.245,27.076,79.335,27.034z"></path><polygon xmlns="http://www.w3.org/2000/svg" fill-rule="evenodd" clip-rule="evenodd" points="80.29,27.993 78.505,80.267 77.47,80.235 79.253,27.961 "></polygon><path xmlns="http://www.w3.org/2000/svg" fill-rule="evenodd" clip-rule="evenodd" d="M73.127,93.802l4.366-13.708c0.086-0.273,0.378-0.424,0.651-0.338  c0.053,0.017,0.102,0.042,0.144,0.071l3.772,2.697l-0.601,0.845l-3.194-2.283l-4.15,13.028L73.127,93.802z"></path><path xmlns="http://www.w3.org/2000/svg" fill-rule="evenodd" clip-rule="evenodd" d="M13.709,30.58l7.891-3.368l4.8-2.99c0.171-0.106,0.362-0.158,0.55-0.157v-0.002  h59.005c0.575,0,1.04,0.466,1.04,1.04c0,0.444-0.276,0.823-0.667,0.972l-5.981,2.779l-4.015,3.495  c-0.196,0.171-0.44,0.255-0.683,0.255v0.001H14.045c-0.574,0-1.04-0.467-1.04-1.041C13.005,31.108,13.3,30.721,13.709,30.58  L13.709,30.58z M22.493,29.089l-3.365,1.436h56.133l3.827-3.332l0.001,0.001c0.072-0.064,0.155-0.118,0.247-0.16l1.915-0.89H27.243  l-4.608,2.871v-0.001C22.59,29.042,22.542,29.066,22.493,29.089z"></path><path xmlns="http://www.w3.org/2000/svg" fill-rule="evenodd" clip-rule="evenodd" d="M37.957,25.534c0.185-5.594,1.97-10.673,4.706-14.36  C45.493,7.361,49.347,5,53.551,5l0.368,0.012c4.022,0.132,7.559,2.415,10.07,6.048c2.424,3.505,3.895,8.297,3.897,13.602h0.005  c0,0.21-0.007,0.537-0.02,0.953l-2.592-0.081c0.006-0.195,0.01-0.478,0.01-0.872h0.006c0-4.763-1.299-9.033-3.438-12.127  c-2.052-2.966-4.871-4.827-8.019-4.931h-0.286c-3.338,0-6.459,1.956-8.804,5.117c-2.439,3.286-4.032,7.846-4.199,12.895  L37.957,25.534z"></path><path xmlns="http://www.w3.org/2000/svg" fill-rule="evenodd" clip-rule="evenodd" d="M29.661,31.616c-0.019-0.472-0.03-0.873-0.03-1.197c0-5.225,1.438-9.94,3.814-13.4  c2.463-3.585,5.939-5.847,9.91-6.012c0.223-0.008,0.382-0.014,0.46-0.014c4.201,0,8.073,2.358,10.933,6.169  c2.766,3.686,4.595,8.763,4.826,14.353l-2.591,0.102c-0.209-5.05-1.841-9.612-4.309-12.9c-2.374-3.163-5.515-5.12-8.858-5.12  l-0.358,0.003c-3.1,0.129-5.864,1.967-7.868,4.885c-2.09,3.044-3.354,7.24-3.354,11.935c0,0.435,0.006,0.801,0.017,1.096  L29.661,31.616z"></path><path xmlns="http://www.w3.org/2000/svg" fill-rule="evenodd" clip-rule="evenodd" d="M30.833,41.631c1.432,0,2.602-1.169,2.602-2.602c0-1.433-1.17-2.602-2.602-2.602  c-1.433,0-2.602,1.169-2.602,2.602C28.23,40.462,29.4,41.631,30.833,41.631z"></path><path xmlns="http://www.w3.org/2000/svg" fill-rule="evenodd" clip-rule="evenodd" d="M57.828,41.631c1.433,0,2.602-1.169,2.602-2.602c0-1.433-1.169-2.602-2.602-2.602  c-1.433,0-2.602,1.169-2.602,2.602C55.226,40.462,56.395,41.631,57.828,41.631z"></path></g><g id="SvgjsG2738" featurekey="j5pGhi-0" transform="matrix(1.8763173978578929,0,0,1.8763173978578929,118.35091617418321,35.88305053604212)" fill="#2c3044"><path d="M2.0117 4.3260000000000005 q0.46875 0 0.8056640625 0.33203125 t0.33691 0.80078 t-0.33691 0.80566 t-0.80566 0.33691 t-0.80078 -0.33691 t-0.33203 -0.80566 t0.33203 -0.80078 t0.80078 -0.33203 z M1.3281 8.73 l1.377 0 l0 10.713 l-1.377 0 l0 -10.713 z M15.4594375 17.3633 q0.87890625 -1.46484375 1.0546875 -2.880859375 q0 -10.16601563 0 -10.14648438 l-1.3672 0 l0 5.9766 q-0.869140625 -1.064453125 -1.943359375 -1.586914063 t-2.3535 -0.52246 q-2.265625 0 -3.876953125 1.650390625 t-1.6113 4.0039 q0 2.314453125 1.62109375 3.955078125 t3.9063 1.6406 q1.30859375 0 2.456054688 -0.5029296875 t2.1143 -1.5869 z M11.0058375 18.1348 q-1.162109375 0 -2.133789063 -0.5712890625 t-1.5479 -1.5869 t-0.57617 -2.168 q0 -1.1328125 0.5810546875 -2.172851563 t1.5625 -1.6113 t2.0947 -0.57129 q1.1328125 0 2.1484375 0.5712890625 t1.5625 1.5527 t0.54688 2.1924 q0 1.865234375 -1.23046875 3.115234375 t-3.0078 1.25 z M28.349734375 15.6348 l1.1523 0.61523 q-0.556640625 1.123046875 -1.30859375 1.806640625 t-1.6895 1.04 t-2.1191 0.35645 q-2.6171875 0 -4.091796875 -1.713867188 t-1.4746 -3.8721 q0 -2.041015625 1.25 -3.6328125 q1.58203125 -2.03125 4.248046875 -2.03125 q2.724609375 0 4.365234375 2.080078125 q1.162109375 1.46484375 1.171875 3.65234375 l-9.6191 0 q0.0390625 1.875 1.19140625 3.071289063 t2.8418 1.1963 q0.8203125 0 1.591796875 -0.2880859375 t1.3135 -0.75684 t1.1768 -1.5234 z M28.349734375 12.7539 q-0.2734375 -1.103515625 -0.80078125 -1.762695313 t-1.3965 -1.0645 t-1.8262 -0.40527 q-1.572265625 0 -2.705078125 1.015625 q-0.8203125 0.7421875 -1.240234375 2.216796875 l7.9688 0 z M32.412071875 15.3809 l-0.019531 -1.1426 q-0.029296875 -0.83984375 0.068359375 -1.42578125 q0.21484375 -1.845703125 0.9375 -2.705078125 q0.703125 -0.751953125 1.435546875 -1.162109375 q1.2109375 -0.517578125 2.763671875 -0.48828125 q1.2109375 0 2.241210938 0.6103515625 t1.4697 1.6406 t0.43945 3.2275 l0 5.5078 l-1.3672 0 l0 -5.1074 q0 -1.85546875 -0.15625 -2.48046875 q-0.244140625 -1.064453125 -0.966796875 -1.508789063 t-2.1387 -0.44434 q-1.25 0 -2.2265625 0.72265625 t-0.9082 1.9727 q-0.185546875 0.80078125 -0.185546875 2.919921875 l0 3.9258 l-1.3867 0 l0 -4.0625 z M48.544896875 17.9297 q-1.015625 0.546875 -1.9921875 0.087890625 q-1.19140625 -0.908203125 -1.1328125 -2.587890625 l0 -4.5313 l2.5391 0 l0 -1.1816 l-2.5488 0 l0 -5.1758 l-1.3867 0 l0 11.123 q-0.01953125 1.171875 0.537109375 2.1484375 q0.91796875 1.552734375 2.5 1.640625 q0.83984375 0.029296875 1.9140625 -0.380859375 q-0.166015625 -0.41015625 -0.4296875 -1.142578125 z M51.650371875 4.3260000000000005 q0.46875 0 0.8056640625 0.33203125 t0.33691 0.80078 t-0.33691 0.80566 t-0.80566 0.33691 t-0.80078 -0.33691 t-0.33203 -0.80566 t0.33203 -0.80078 t0.80078 -0.33203 z M50.966771875 8.73 l1.377 0 l0 10.713 l-1.377 0 l0 -10.713 z M59.052709375 17.9297 q-1.015625 0.546875 -1.9921875 0.087890625 q-1.19140625 -0.908203125 -1.1328125 -2.587890625 l0 -4.5313 l2.5391 0 l0 -1.1816 l-2.5488 0 l0 -5.1758 l-1.3867 0 l0 11.123 q-0.01953125 1.171875 0.537109375 2.1484375 q0.91796875 1.552734375 2.5 1.640625 q0.83984375 0.029296875 1.9140625 -0.380859375 q-0.166015625 -0.41015625 -0.4296875 -1.142578125 z M60.527344375 8.477 l1.4551 0 l3.6816 8.252 l3.5742 -8.252 l1.4746 0 l-6.3965 14.619 l-1.4551 0 l2.0605 -4.7168 z M73.339865625 17.3633 q-0.87890625 -1.46484375 -1.0546875 -2.880859375 q0 -10.16601563 0 -10.14648438 l1.3672 0 l0 5.9766 q0.869140625 -1.064453125 1.943359375 -1.586914063 t2.3535 -0.52246 q2.265625 0 3.876953125 1.650390625 t1.6113 4.0039 q0 2.314453125 -1.62109375 3.955078125 t-3.9063 1.6406 q-1.30859375 0 -2.456054688 -0.5029296875 t-2.1143 -1.5869 z M77.792965625 18.1348 q1.162109375 0 2.133789063 -0.5712890625 t1.5479 -1.5869 t0.57617 -2.168 q0 -1.1328125 -0.5810546875 -2.172851563 t-1.5625 -1.6113 t-2.0947 -0.57129 q-1.1328125 0 -2.1484375 0.5712890625 t-1.5625 1.5527 t-0.54688 2.1924 q0 1.865234375 1.23046875 3.115234375 t3.0078 1.25 z M86.01566875 8.477 l1.3867 0 l0 5 q0 1.8359375 0.1953125 2.51953125 q0.29296875 0.986328125 1.123046875 1.557617188 t1.9922 0.57129 q1.15234375 0 1.953125 -0.556640625 t1.1035 -1.4648 q0.21484375 -0.615234375 0.21484375 -2.626953125 l0 -5 l1.4063 0 l0 5.2637 q0 2.216796875 -0.5224609375 3.334960938 t-1.5576 1.748 t-2.5977 0.62988 q-1.572265625 0 -2.6171875 -0.6298828125 t-1.5625 -1.7676 t-0.51758 -3.4229 l0 -5.1563 z M97.285156875 8.477 l1.4551 0 l3.6816 8.252 l3.5742 -8.252 l1.4746 0 l-6.3965 14.619 l-1.4551 0 l2.0605 -4.7168 z"></path></g></svg>