<svg xmlns="http://www.w3.org/2000/svg" width="130" height="121.63805016653917" viewBox="0 0 130 121.63805016653917" class="css-1j8o68f"><defs id="SvgjsDefs2736"></defs><g id="SvgjsG2737" featurekey="S6ay6y-0" transform="matrix(1.3515338907393242,0,0,1.3515338907393242,-17.57669840373569,-6.757669453696621)" fill="#2c3044"><path xmlns="http://www.w3.org/2000/svg" fill-rule="evenodd" clip-rule="evenodd" d="M14.047,30.525H75.65c0.575,0,1.04,0.465,1.04,1.04c0,0.04-0.004,0.08-0.007,0.12  l-2.026,62.306c-0.016,0.561-0.478,1.005-1.036,1.005V95H17.133c-0.575,0-1.04-0.466-1.04-1.04v-0.027L13.01,31.614  c-0.026-0.572,0.416-1.058,0.989-1.085l0.048-0.001V30.525L14.047,30.525z M74.578,32.606H15.137l2.984,60.313h54.497L74.578,32.606  z"></path><path xmlns="http://www.w3.org/2000/svg" fill-rule="evenodd" clip-rule="evenodd" d="M84.848,26.763l-4.5,2.092l-3.677,3.2l-1.918,58.992l7.83-9.118L84.848,26.763  L84.848,26.763z M79.335,27.034l6.185-2.871v0.001c0.145-0.067,0.306-0.102,0.476-0.096c0.572,0.022,1.017,0.505,0.996,1.077  l-2.35,57.197c-0.001,0.236-0.084,0.472-0.249,0.665l-9.983,11.627l-0.001-0.001c-0.197,0.231-0.494,0.373-0.82,0.362  c-0.572-0.018-1.022-0.496-1.004-1.069l2.027-62.32c-0.013-0.303,0.109-0.61,0.355-0.825l4.122-3.588v0.001  C79.162,27.13,79.245,27.076,79.335,27.034z"></path><polygon xmlns="http://www.w3.org/2000/svg" fill-rule="evenodd" clip-rule="evenodd" points="80.29,27.993 78.505,80.267 77.47,80.235 79.253,27.961 "></polygon><path xmlns="http://www.w3.org/2000/svg" fill-rule="evenodd" clip-rule="evenodd" d="M73.127,93.802l4.366-13.708c0.086-0.273,0.378-0.424,0.651-0.338  c0.053,0.017,0.102,0.042,0.144,0.071l3.772,2.697l-0.601,0.845l-3.194-2.283l-4.15,13.028L73.127,93.802z"></path><path xmlns="http://www.w3.org/2000/svg" fill-rule="evenodd" clip-rule="evenodd" d="M13.709,30.58l7.891-3.368l4.8-2.99c0.171-0.106,0.362-0.158,0.55-0.157v-0.002  h59.005c0.575,0,1.04,0.466,1.04,1.04c0,0.444-0.276,0.823-0.667,0.972l-5.981,2.779l-4.015,3.495  c-0.196,0.171-0.44,0.255-0.683,0.255v0.001H14.045c-0.574,0-1.04-0.467-1.04-1.041C13.005,31.108,13.3,30.721,13.709,30.58  L13.709,30.58z M22.493,29.089l-3.365,1.436h56.133l3.827-3.332l0.001,0.001c0.072-0.064,0.155-0.118,0.247-0.16l1.915-0.89H27.243  l-4.608,2.871v-0.001C22.59,29.042,22.542,29.066,22.493,29.089z"></path><path xmlns="http://www.w3.org/2000/svg" fill-rule="evenodd" clip-rule="evenodd" d="M37.957,25.534c0.185-5.594,1.97-10.673,4.706-14.36  C45.493,7.361,49.347,5,53.551,5l0.368,0.012c4.022,0.132,7.559,2.415,10.07,6.048c2.424,3.505,3.895,8.297,3.897,13.602h0.005  c0,0.21-0.007,0.537-0.02,0.953l-2.592-0.081c0.006-0.195,0.01-0.478,0.01-0.872h0.006c0-4.763-1.299-9.033-3.438-12.127  c-2.052-2.966-4.871-4.827-8.019-4.931h-0.286c-3.338,0-6.459,1.956-8.804,5.117c-2.439,3.286-4.032,7.846-4.199,12.895  L37.957,25.534z"></path><path xmlns="http://www.w3.org/2000/svg" fill-rule="evenodd" clip-rule="evenodd" d="M29.661,31.616c-0.019-0.472-0.03-0.873-0.03-1.197c0-5.225,1.438-9.94,3.814-13.4  c2.463-3.585,5.939-5.847,9.91-6.012c0.223-0.008,0.382-0.014,0.46-0.014c4.201,0,8.073,2.358,10.933,6.169  c2.766,3.686,4.595,8.763,4.826,14.353l-2.591,0.102c-0.209-5.05-1.841-9.612-4.309-12.9c-2.374-3.163-5.515-5.12-8.858-5.12  l-0.358,0.003c-3.1,0.129-5.864,1.967-7.868,4.885c-2.09,3.044-3.354,7.24-3.354,11.935c0,0.435,0.006,0.801,0.017,1.096  L29.661,31.616z"></path><path xmlns="http://www.w3.org/2000/svg" fill-rule="evenodd" clip-rule="evenodd" d="M30.833,41.631c1.432,0,2.602-1.169,2.602-2.602c0-1.433-1.17-2.602-2.602-2.602  c-1.433,0-2.602,1.169-2.602,2.602C28.23,40.462,29.4,41.631,30.833,41.631z"></path><path xmlns="http://www.w3.org/2000/svg" fill-rule="evenodd" clip-rule="evenodd" d="M57.828,41.631c1.433,0,2.602-1.169,2.602-2.602c0-1.433-1.169-2.602-2.602-2.602  c-1.433,0-2.602,1.169-2.602,2.602C55.226,40.462,56.395,41.631,57.828,41.631z"></path></g><g id="SvgjsG2738" featurekey="j5pGhi-0" transform="matrix(1.8763173978578929,0,0,1.8763173978578929,118.35091617418321,35.88305053604212)" fill="#2c3044"></g></svg>